<?xml version="1.0" encoding="UTF-8" standalone="no"?>
<svg
   xmlns:dc="http://purl.org/dc/elements/1.1/"
   xmlns:cc="http://creativecommons.org/ns#"
   xmlns:rdf="http://www.w3.org/1999/02/22-rdf-syntax-ns#"
   xmlns:svg="http://www.w3.org/2000/svg"
   xmlns="http://www.w3.org/2000/svg"
   xmlns:sodipodi="http://sodipodi.sourceforge.net/DTD/sodipodi-0.dtd"
   xmlns:inkscape="http://www.inkscape.org/namespaces/inkscape"
   width="128"
   height="128"
   version="1.0"
   enable-background="new"
   id="svg32"
   sodipodi:docname="text-x-xges.svg"
   inkscape:version="0.92.4 5da689c313, 2019-01-14">
  <metadata
     id="metadata36">
    <rdf:RDF>
      <cc:Work
         rdf:about="">
        <dc:format>image/svg+xml</dc:format>
        <dc:type
           rdf:resource="http://purl.org/dc/dcmitype/StillImage" />
      </cc:Work>
    </rdf:RDF>
  </metadata>
  <sodipodi:namedview
     pagecolor="#ffffff"
     bordercolor="#666666"
     borderopacity="1"
     objecttolerance="10"
     gridtolerance="10"
     guidetolerance="10"
     inkscape:pageopacity="0"
     inkscape:pageshadow="2"
     inkscape:window-width="640"
     inkscape:window-height="480"
     id="namedview34"
     showgrid="false"
     inkscape:zoom="7.1640625"
     inkscape:cx="36.36205"
     inkscape:cy="64"
     inkscape:current-layer="svg32" />
  <defs
     id="defs20">
    <linearGradient
       id="a">
      <stop
         offset="0"
         stop-color="#d5d3cf"
         id="stop2" />
      <stop
         offset="1"
         stop-color="#f6f5f4"
         id="stop4" />
    </linearGradient>
    <linearGradient
       id="b">
      <stop
         offset="0"
         stop-color="#d5d3cf"
         id="stop7" />
      <stop
         offset="1"
         stop-color="#949390"
         id="stop9" />
    </linearGradient>
    <linearGradient
       id="c">
      <stop
         offset="0"
         stop-color="#9a9996"
         id="stop12" />
      <stop
         offset="1"
         stop-color="#77767b"
         id="stop14" />
    </linearGradient>
    <filter
       id="d"
       x="-.014"
       width="1.027"
       y="-.011"
       height="1.021"
       color-interpolation-filters="sRGB">
      <feGaussianBlur
         stdDeviation="2"
         id="feGaussianBlur17" />
    </filter>
  </defs>
  <g
     stroke-width=".25"
     id="g28">
    <path
       d="M111.828-178.55h200L432-58.88l.005 296.24c0 17.728-14.449 32.089-32.177 32.089h-288c-17.728 0-32-14.272-32-32v-384c0-17.728 14.272-32 32-32z"
       opacity=".4"
       filter="url(#d)"
       enable-background="new"
       transform="matrix(.25 0 0 .25 .02 52.741)"
       id="path22" />
    <path
       d="M27.978 7.823h50l30.043 29.918.001 74.06c0 4.432-3.612 8.022-8.044 8.022h-72c-4.432 0-8-3.568-8-8v-96c0-4.432 3.568-8 8-8z"
       fill="#f6f5f4"
       enable-background="new"
       id="path24" />
    <path
       d="M77.978 7.823v22c0 4.432 3.61 7.924 8.042 7.924l22-.006z"
       fill="#deddda"
       enable-background="new"
       id="path26" />
  </g>
  <path
     style="marker:none;fill:#813d9c"
     d="M44 48c-4.432 0-8 3.568-8 8v32c0 4.432 3.568 8 8 8h40c4.432 0 8-3.568 8-8V48h-8l4 8-4 8h-8l4-8-4-8h-8l4 8-4 8h-8l4-8-4-8h-8l4 8-4 8h-8l4-8z"
     fill="#26a269"
     id="path30" />
</svg>
