/* XPM */
static char * backward_xpm[] = {
"12 12 2 1",
" 	g None",
".	g #363636",
"     .     .",
"    ..    ..",
"   ...   ...",
"  ....  ....",
" ..... .....",
"............",
"............",
" ..... .....",
"  .... .....",
"   ...  ....",
"    ..   ...",
"     .    .."};
