/* XPM */
static char * bg_trans_xpm[] = {
"16 30 3 1",
" 	c None",
".	c #c5e0b8",
"+	c #438228",
"................",
"................",
"................",
"................",
"................",
"................",
"................",
"................",
"................",
"................",
"................",
"................",
"................",
"++++++++++++++++",
"................",
"................",
"................",
"................",
"................",
"................",
"................",
"................",
"................",
"................",
"................",
"................",
"................",
"................",
"................",
"................",
"................"};
