/* XPM */
static char * pitivi_xpm[] = {
"48 48 903 2",
"  	c None",
". 	c #727272",
"+ 	c #818181",
"@ 	c #969696",
"# 	c #9E9E9E",
"$ 	c #6B6B6D",
"% 	c #6B7079",
"& 	c #515358",
"* 	c #5F5F5F",
"= 	c #828282",
"- 	c #8A8A8A",
"; 	c #9F9F9F",
"> 	c #A4A4A4",
", 	c #B3B3B3",
"' 	c #BEBEBE",
") 	c #D1D1D1",
"! 	c #E5E5E5",
"~ 	c #F5F5F5",
"{ 	c #FDFDFD",
"] 	c #FFFFFF",
"^ 	c #909296",
"/ 	c #9FA7B6",
"( 	c #646870",
"_ 	c #636363",
": 	c #757575",
"< 	c #8E8E8E",
"[ 	c #979797",
"} 	c #A6A6A6",
"| 	c #ABABAB",
"1 	c #BABABA",
"2 	c #CCCCCC",
"3 	c #E1E1E1",
"4 	c #F2F2F2",
"5 	c #FAFAFA",
"6 	c #FEFEFE",
"7 	c #ECECEC",
"8 	c #D7D7D7",
"9 	c #E9E9E9",
"0 	c #80838A",
"a 	c #54575D",
"b 	c #777777",
"c 	c #989898",
"d 	c #ADADAD",
"e 	c #B2B2B2",
"f 	c #C3C3C3",
"g 	c #DADADA",
"h 	c #F0F0F0",
"i 	c #FCFCFC",
"j 	c #F8F8F8",
"k 	c #EFEFEF",
"l 	c #DFDFDF",
"m 	c #C9C9C9",
"n 	c #9D9D9D",
"o 	c #878787",
"p 	c #717171",
"q 	c #5B5B5B",
"r 	c #454545",
"s 	c #303030",
"t 	c #1C1C1C",
"u 	c #0B0C0D",
"v 	c #010101",
"w 	c #000000",
"x 	c #727781",
"y 	c #9CA4B3",
"z 	c #7E7E7E",
"A 	c #D3D3D3",
"B 	c #E8E8E8",
"C 	c #F6F6F6",
"D 	c #F4F4F4",
"E 	c #E4E4E4",
"F 	c #D0D0D0",
"G 	c #BBBBBB",
"H 	c #A5A5A5",
"I 	c #8F8F8F",
"J 	c #797979",
"K 	c #4D4D4D",
"L 	c #383838",
"M 	c #232323",
"N 	c #161719",
"O 	c #111418",
"P 	c #131921",
"Q 	c #1D2632",
"R 	c #273444",
"S 	c #324156",
"T 	c #3C4F68",
"U 	c #465C79",
"V 	c #50698B",
"W 	c #5A769C",
"X 	c #6483AD",
"Y 	c #6D8FBD",
"Z 	c #435975",
"` 	c #020202",
" .	c #DCDCDC",
"..	c #E0E0E0",
"+.	c #7E8490",
"@.	c #8C93A0",
"#.	c #6B6B6B",
"$.	c #555555",
"%.	c #3F3F40",
"&.	c #2A2B2B",
"*.	c #181819",
"=.	c #161C24",
"-.	c #1E2734",
";.	c #283546",
">.	c #334358",
",.	c #3D506A",
"'.	c #485E7C",
").	c #526C8F",
"!.	c #5D7AA1",
"~.	c #6888B3",
"{.	c #7296C5",
"].	c #799FD1",
"^.	c #7CA3D7",
"/.	c #7EA5D9",
"(.	c #81A7DA",
"_.	c #87ABDB",
":.	c #8DAFDC",
"<.	c #93B3DD",
"[.	c #99B7DE",
"}.	c #9CB8DE",
"|.	c #93B2DB",
"1.	c #89ABD8",
"2.	c #7FA3D4",
"3.	c #36485F",
"4.	c #0E0E0E",
"5.	c #B7B7B8",
"6.	c #969EAC",
"7.	c #787E88",
"8.	c #AEAEAE",
"9.	c #373A3E",
"0.	c #293546",
"a.	c #3E516B",
"b.	c #485F7D",
"c.	c #536D8F",
"d.	c #5D7BA2",
"e.	c #6888B4",
"f.	c #7195C4",
"g.	c #7AA1D4",
"h.	c #80A7DC",
"i.	c #82A9DD",
"j.	c #85ABDD",
"k.	c #8AAEDF",
"l.	c #90B2E0",
"m.	c #96B6E1",
"n.	c #9BBAE2",
"o.	c #A1BEE4",
"p.	c #A7C2E5",
"q.	c #ADC6E6",
"r.	c #B3C9E7",
"s.	c #B9CDE8",
"t.	c #BED0E9",
"u.	c #C4D4EA",
"v.	c #C7D6EA",
"w.	c #C1D2E8",
"x.	c #B0C6E3",
"y.	c #9DB9DE",
"z.	c #8AABD8",
"A.	c #7BA1D3",
"B.	c #789FD2",
"C.	c #789ED1",
"D.	c #779DD0",
"E.	c #24303F",
"F.	c #353535",
"G.	c #9E9FA1",
"H.	c #6C717A",
"I.	c #B1B1B1",
"J.	c #495668",
"K.	c #80A8DC",
"L.	c #8FB2E0",
"M.	c #95B6E1",
"N.	c #9AB9E2",
"O.	c #A0BDE4",
"P.	c #A5C1E5",
"Q.	c #ABC4E6",
"R.	c #B0C8E7",
"S.	c #B6CCE8",
"T.	c #BACFE9",
"U.	c #BED1EA",
"V.	c #C0D3EB",
"W.	c #C1D4EB",
"X.	c #C1D3EB",
"Y.	c #C2D3EB",
"Z.	c #C1D3EA",
"`.	c #C1D2E9",
" +	c #B6CAE5",
".+	c #A0BBDF",
"++	c #8BACD9",
"@+	c #7CA2D4",
"#+	c #799FD2",
"$+	c #789FD1",
"%+	c #779DCF",
"&+	c #769CCE",
"*+	c #759BCD",
"=+	c #131A22",
"-+	c #606060",
";+	c #8E9095",
">+	c #61656D",
",+	c #435266",
"'+	c #B9CEE9",
")+	c #BACFEA",
"!+	c #BBCFEA",
"~+	c #BBCFE9",
"{+	c #BBCEE8",
"]+	c #BACEE8",
"^+	c #BACEE7",
"/+	c #B5CAE5",
"(+	c #9FBADF",
"_+	c #87A9D7",
":+	c #7AA0D3",
"<+	c #789ED0",
"[+	c #779CCF",
"}+	c #759ACC",
"|+	c #749ACC",
"1+	c #7195C5",
"2+	c #050709",
"3+	c #8B8B8B",
"4+	c #7D8188",
"5+	c #505358",
"6+	c #B5B5B5",
"7+	c #405168",
"8+	c #87ACDE",
"9+	c #B4CBE9",
"0+	c #B4CBE8",
"a+	c #B3C9E6",
"b+	c #B5CBE9",
"c+	c #B5CBE8",
"d+	c #B4CAE7",
"e+	c #B4C9E6",
"f+	c #B3C9E5",
"g+	c #ABC3E2",
"h+	c #91B0DA",
"i+	c #7CA1D4",
"j+	c #779ED0",
"k+	c #769CCF",
"l+	c #749ACB",
"m+	c #7499CB",
"n+	c #7398CA",
"o+	c #7398C9",
"p+	c #6484AF",
"q+	c #B6B6B6",
"r+	c #747A83",
"s+	c #99A1B0",
"t+	c #B7B7B7",
"u+	c #EEEEEE",
"v+	c #42556E",
"w+	c #88ADDE",
"x+	c #AEC7E7",
"y+	c #636F7F",
"z+	c #252729",
"A+	c #27292C",
"B+	c #2C2F33",
"C+	c #34393E",
"D+	c #3F454C",
"E+	c #4C535E",
"F+	c #5D6775",
"G+	c #8090A5",
"H+	c #ACC4E3",
"I+	c #ADC4E3",
"J+	c #A7C0E1",
"K+	c #8DADD9",
"L+	c #7AA0D2",
"M+	c #769BCE",
"N+	c #7499CA",
"O+	c #7297C8",
"P+	c #7296C7",
"Q+	c #7196C6",
"R+	c #526D90",
"S+	c #DDDDDD",
"T+	c #FBFBFB",
"U+	c #D5D5D5",
"V+	c #838995",
"W+	c #888F9C",
"X+	c #B9B9B9",
"Y+	c #DEDEDE",
"Z+	c #455A76",
"`+	c #89ADDE",
" @	c #A8C3E5",
".@	c #424A54",
"+@	c #181818",
"@@	c #191919",
"#@	c #374649",
"$@	c #4C6067",
"%@	c #7E9AB9",
"&@	c #6C8FBD",
"*@	c #698BB9",
"=@	c #7195C6",
"-@	c #7095C5",
";@	c #7094C5",
">@	c #6F94C4",
",@	c #415672",
"'@	c #121212",
")@	c #979EAD",
"!@	c #757A85",
"~@	c #CDCDCD",
"{@	c #4A617F",
"]@	c #88ACDC",
"^@	c #A1BDE2",
"/@	c #91AACB",
"(@	c #3A424B",
"_@	c #1A1A1B",
":@	c #2A3938",
"<@	c #2D403E",
"[@	c #33484B",
"}@	c #395056",
"|@	c #4A6578",
"1@	c #6D90BC",
"2@	c #6A8EBB",
"3@	c #283C4D",
"4@	c #0D1B21",
"5@	c #6486B1",
"6@	c #7094C4",
"7@	c #6F93C4",
"8@	c #6F93C3",
"9@	c #6E92C2",
"0@	c #6E91C1",
"a@	c #304055",
"b@	c #959698",
"c@	c #9EA6B5",
"d@	c #6A6F78",
"e@	c #BDBDBD",
"f@	c #4E6788",
"g@	c #86AADA",
"h@	c #99B7DF",
"i@	c #99B6DE",
"j@	c #97B4DB",
"k@	c #6F849F",
"l@	c #444F5D",
"m@	c #404956",
"n@	c #4A5665",
"o@	c #5B6B80",
"p@	c #7185A1",
"q@	c #7D97BB",
"r@	c #577393",
"s@	c #314546",
"t@	c #2E4140",
"u@	c #324647",
"v@	c #405764",
"w@	c #4A627A",
"x@	c #435C72",
"y@	c #253B45",
"z@	c #102425",
"A@	c #0B1E1E",
"B@	c #020E0E",
"C@	c #30465B",
"D@	c #6D91C0",
"E@	c #6D90BF",
"F@	c #6C8FBE",
"G@	c #202A38",
"H@	c #84878B",
"I@	c #5D6169",
"J@	c #AFAFAF",
"K@	c #536D90",
"L@	c #83A7D7",
"M@	c #91B1DB",
"N@	c #90B0D9",
"O@	c #90AFD9",
"P@	c #90AFD8",
"Q@	c #90AED7",
"R@	c #8FAED7",
"S@	c #8FADD6",
"T@	c #86A7D3",
"U@	c #3B5159",
"V@	c #2A3B3A",
"W@	c #243131",
"X@	c #222F2F",
"Y@	c #0D2020",
"Z@	c #071616",
"`@	c #203341",
" #	c #6B8EBD",
".#	c #6B8DBC",
"+#	c #10151C",
"@#	c #E7E7E7",
"##	c #777B82",
"$#	c #494C50",
"%#	c #272727",
"&#	c #242424",
"*#	c #343434",
"=#	c #262E38",
"-#	c #394656",
";#	c #48576A",
">#	c #576A83",
",#	c #6982A2",
"'#	c #83A3CC",
")#	c #88A8D4",
"!#	c #88A8D3",
"~#	c #87A7D2",
"{#	c #80A2CF",
"]#	c #5E7DA5",
"^#	c #496276",
"/#	c #2F4242",
"(#	c #2A3A3A",
"_#	c #0E2121",
":#	c #0F1F23",
"<#	c #374E67",
"[#	c #6B8EBC",
"}#	c #6A8DBC",
"|#	c #6A8CBB",
"1#	c #698CBA",
"2#	c #6687B3",
"3#	c #040507",
"4#	c #A8A8A8",
"5#	c #757A84",
"6#	c #9AA1B0",
"7#	c #262626",
"8#	c #0D0D0D",
"9#	c #0F0F0F",
"0#	c #191616",
"a#	c #141314",
"b#	c #0E1011",
"c#	c #32373D",
"d#	c #687C96",
"e#	c #7A97BE",
"f#	c #7A9DCB",
"g#	c #6585B1",
"h#	c #2C3E40",
"i#	c #476072",
"j#	c #6A8DB9",
"k#	c #6585AF",
"l#	c #29373D",
"m#	c #28363A",
"n#	c #364B5B",
"o#	c #3F5B74",
"p#	c #57769B",
"q#	c #688AB7",
"r#	c #688AB8",
"s#	c #59769D",
"t#	c #030303",
"u#	c #C1C1C1",
"v#	c #848B98",
"w#	c #838A96",
"x#	c #100F0F",
"y#	c #101112",
"z#	c #070A0D",
"A#	c #0B0D11",
"B#	c #1A1A1E",
"C#	c #2A2A2A",
"D#	c #CED1D5",
"E#	c #AEB6C0",
"F#	c #5F7086",
"G#	c #7691B5",
"H#	c #6785AC",
"I#	c #526E89",
"J#	c #6C8FBF",
"K#	c #557197",
"L#	c #0F141B",
"M#	c #5A779E",
"N#	c #6A8CBA",
"O#	c #6789B6",
"P#	c #6788B6",
"Q#	c #6688B5",
"R#	c #496181",
"S#	c #151515",
"T#	c #E2E2E2",
"U#	c #A1A2A2",
"V#	c #989FAE",
"W#	c #70757F",
"X#	c #222222",
"Y#	c #090B0C",
"Z#	c #090B0E",
"`#	c #0D0D10",
" $	c #141423",
".$	c #1E1E2D",
"+$	c #999999",
"@$	c #BCBCBC",
"#$	c #777B7B",
"$$	c #99A09F",
"%$	c #404B4A",
"&$	c #4C5B5A",
"*$	c #657C94",
"=$	c #6B8DBA",
"-$	c #536B8B",
";$	c #1D2126",
">$	c #4D4F52",
",$	c #A3ABB5",
"'$	c #6680A2",
")$	c #6C8DB9",
"!$	c #6889B7",
"~$	c #6788B5",
"{$	c #6587B4",
"]$	c #6586B3",
"^$	c #6486B2",
"/$	c #394C66",
"($	c #363636",
"_$	c #8E8F92",
":$	c #686D75",
"<$	c #282828",
"[$	c #1F1F1F",
"}$	c #05090B",
"|$	c #0F0F15",
"1$	c #1D1D37",
"2$	c #24243F",
"3$	c #D8D8D8",
"4$	c #787878",
"5$	c #D2D2D2",
"6$	c #C1C7CE",
"7$	c #8294AE",
"8$	c #829BBD",
"9$	c #78879B",
"0$	c #34373B",
"a$	c #44474A",
"b$	c #8095B1",
"c$	c #7290B9",
"d$	c #6788B4",
"e$	c #6485B2",
"f$	c #6485B1",
"g$	c #6384B0",
"h$	c #6383B0",
"i$	c #2A384B",
"j$	c #5E5E5E",
"k$	c #818489",
"l$	c #5B5F65",
"m$	c #1E1E1E",
"n$	c #090C0F",
"o$	c #101018",
"p$	c #212142",
"q$	c #29294A",
"r$	c #CBCBCB",
"s$	c #6A6A6A",
"t$	c #B8B8B8",
"u$	c #ECEBEB",
"v$	c #292929",
"w$	c #0B0C0F",
"x$	c #69707A",
"y$	c #939FAF",
"z$	c #707884",
"A$	c #424549",
"B$	c #718197",
"C$	c #7390B8",
"D$	c #6283AF",
"E$	c #6282AE",
"F$	c #6181AD",
"G$	c #1C2531",
"H$	c #858585",
"I$	c #E6E6E6",
"J$	c #767A82",
"K$	c #45474B",
"L$	c #2C2C2C",
"M$	c #1D1D1D",
"N$	c #1C1919",
"O$	c #0B0D10",
"P$	c #101017",
"Q$	c #20203E",
"R$	c #272745",
"S$	c #C4C4C4",
"T$	c #707070",
"U$	c #D4D4D4",
"V$	c #A2A2A2",
"W$	c #7D7D7D",
"X$	c #E8E7E7",
"Y$	c #1A1A1A",
"Z$	c #545557",
"`$	c #686A6D",
" %	c #7C96B8",
".%	c #6E8BB3",
"+%	c #6181AC",
"@%	c #6080AB",
"#%	c #5F7FAA",
"$%	c #0E1218",
"%%	c #ACACAC",
"&%	c #737983",
"*%	c #949BA9",
"=%	c #1E1D1D",
"-%	c #151313",
";%	c #1D1A1A",
">%	c #1F1B1B",
",%	c #0F1112",
"'%	c #0C0C0F",
")%	c #0E0E12",
"!%	c #19192F",
"~%	c #222234",
"{%	c #2B2B2B",
"]%	c #D9D9D9",
"^%	c #A9A9A9",
"/%	c #A3A3A3",
"(%	c #7A7A7A",
"_%	c #E8E6E6",
":%	c #E4E1E1",
"<%	c #A1A1A1",
"[%	c #6D6D6D",
"}%	c #A8A9AA",
"|%	c #89A0C0",
"1%	c #7792B7",
"2%	c #6483AC",
"3%	c #5E7EA9",
"4%	c #5977A0",
"5%	c #040608",
"6%	c #878E9B",
"7%	c #7D848F",
"8%	c #2E2F2E",
"9%	c #232121",
"0%	c #1A1818",
"a%	c #070B0D",
"b%	c #101019",
"c%	c #1F1F25",
"d%	c #444444",
"e%	c #686868",
"f%	c #888888",
"g%	c #BBBABA",
"h%	c #E3E1E1",
"i%	c #DFDCDC",
"j%	c #C5C4C4",
"k%	c #BFBFBF",
"l%	c #AFB2B5",
"m%	c #92A8C4",
"n%	c #7E97B9",
"o%	c #6985AD",
"p%	c #5D7CA6",
"q%	c #4E698C",
"r%	c #141414",
"s%	c #9C9C9D",
"t%	c #9BA3B2",
"u%	c #333333",
"v%	c #232222",
"w%	c #1A1717",
"x%	c #141212",
"y%	c #111010",
"z%	c #0B0E0F",
"A%	c #0A0C0F",
"B%	c #8D8D8D",
"C%	c #939393",
"D%	c #676767",
"E%	c #DEDDDD",
"F%	c #807F7F",
"G%	c #B9B8B8",
"H%	c #DBD7D7",
"I%	c #C3C7CC",
"J%	c #97AAC6",
"K%	c #8199B9",
"L%	c #6B87AC",
"M%	c #5B7AA4",
"N%	c #405673",
"O%	c #3A3A3A",
"P%	c #8B8D90",
"Q%	c #676B72",
"R%	c #343534",
"S%	c #0C0C0C",
"T%	c #070A0C",
"U%	c #0A0D0F",
"V%	c #393939",
"W%	c #666666",
"X%	c #868686",
"Y%	c #A0A0A0",
"Z%	c #A7A7A7",
"`%	c #838282",
" &	c #DEDBDB",
".&	c #D8D4D4",
"+&	c #C5C5C5",
"@&	c #C8C8C8",
"#&	c #E3E3E3",
"$&	c #BBC1C8",
"%&	c #97AAC4",
"&&	c #8098B7",
"*&	c #6A85AA",
"=&	c #5A78A1",
"-&	c #32435A",
";&	c #616161",
">&	c #7F8287",
",&	c #585B61",
"'&	c #2D2D2D",
")&	c #212121",
"!&	c #171717",
"~&	c #111111",
"{&	c #2C3034",
"]&	c #5D7088",
"^&	c #889BB3",
"/&	c #8B9BB1",
"(&	c #5F6E81",
"_&	c #627690",
":&	c #606B6C",
"<&	c #464F4A",
"[&	c #4C5851",
"}&	c #424E47",
"|&	c #707873",
"1&	c #818883",
"2&	c #8E938F",
"3&	c #C9C7C6",
"4&	c #AFB7C1",
"5&	c #92A6C1",
"6&	c #7C94B4",
"7&	c #6681A6",
"8&	c #58769E",
"9&	c #253142",
"0&	c #73777F",
"a&	c #9DA5B3",
"b&	c #2B2F36",
"c&	c #3A4655",
"d&	c #363F4C",
"e&	c #353E4A",
"f&	c #35404E",
"g&	c #44566E",
"h&	c #5D7CA5",
"i&	c #6081AC",
"j&	c #56718C",
"k&	c #414F48",
"l&	c #414F47",
"m&	c #435149",
"n&	c #49564E",
"o&	c #BDBEBE",
"p&	c #A5AFBC",
"q&	c #899EBA",
"r&	c #748CAE",
"s&	c #5F7BA1",
"t&	c #56739B",
"u&	c #18202B",
"v&	c #757B85",
"w&	c #9097A5",
"x&	c #334050",
"y&	c #6384B1",
"z&	c #6182AD",
"A&	c #6080AC",
"B&	c #5F7EA9",
"C&	c #5E7EA8",
"D&	c #5E7DA7",
"E&	c #4E6472",
"F&	c #43524E",
"G&	c #3F4D45",
"H&	c #BCBDBD",
"I&	c #8F9CAE",
"J&	c #7C92B1",
"K&	c #6882A5",
"L&	c #57749B",
"M&	c #547098",
"N&	c #0C0F15",
"O&	c #8C92A0",
"P&	c #7B818C",
"Q&	c #838383",
"R&	c #DBDBDB",
"S&	c #1F242B",
"T&	c #384B64",
"U&	c #516B90",
"V&	c #5D7CA7",
"W&	c #5C7BA5",
"X&	c #5C7AA4",
"Y&	c #5A79A1",
"Z&	c #567192",
"`&	c #51697F",
" *	c #4F6471",
".*	c #4F6166",
"+*	c #4C5B5D",
"@*	c #CECECE",
"#*	c #9CA5B2",
"$*	c #7A8FAD",
"%*	c #6C85A6",
"&*	c #5B769C",
"**	c #537097",
"=*	c #4F6A8F",
"-*	c #030405",
";*	c #99999A",
">*	c #9CA3B2",
",*	c #6D727B",
"'*	c #8C8C8C",
")*	c #D6D6D6",
"!*	c #626262",
"~*	c #2E3237",
"{*	c #232E3D",
"]*	c #3A4E68",
"^*	c #526D92",
"/*	c #5B7AA3",
"(*	c #5A79A2",
"_*	c #5A78A2",
":*	c #5978A1",
"<*	c #58769F",
"[*	c #59779F",
"}*	c #647FA4",
"|*	c #6A82A3",
"1*	c #BBBCBD",
"2*	c #C6C8CC",
"3*	c #8191A7",
"4*	c #758CAB",
"5*	c #6981A4",
"6*	c #5A759B",
"7*	c #526F95",
"8*	c #526E94",
"9*	c #445C7C",
"0*	c #3D3D3D",
"a*	c #898B8E",
"b*	c #505051",
"c*	c #23282E",
"d*	c #253242",
"e*	c #3C506B",
"f*	c #516D92",
"g*	c #58759E",
"h*	c #57759D",
"i*	c #57749C",
"j*	c #56739C",
"k*	c #577194",
"l*	c #BBBBBC",
"m*	c #9BA4B0",
"n*	c #687F9E",
"o*	c #667FA1",
"p*	c #5E789C",
"q*	c #557196",
"r*	c #516D93",
"s*	c #506C93",
"t*	c #506C92",
"u*	c #374B65",
"v*	c #646464",
"w*	c #7C7F85",
"x*	c #505359",
"y*	c #404142",
"z*	c #1C222A",
"A*	c #273446",
"B*	c #3D526E",
"C*	c #506B91",
"D*	c #55729A",
"E*	c #547199",
"F*	c #547198",
"G*	c #506B90",
"H*	c #8D949E",
"I*	c #6C7E97",
"J*	c #557096",
"K*	c #536E94",
"L*	c #516C93",
"M*	c #4F6B91",
"N*	c #4F6A90",
"O*	c #4E6A8F",
"P*	c #2B3A4F",
"Q*	c #303132",
"R*	c #161D26",
"S*	c #29374A",
"T*	c #3E5471",
"U*	c #526E95",
"V*	c #516D94",
"W*	c #4E698F",
"X*	c #4E698E",
"Y*	c #4D688D",
"Z*	c #4D678D",
"`*	c #1F2A39",
" =	c #787E89",
".=	c #8C93A1",
"+=	c #898989",
"@=	c #CFCFCF",
"#=	c #595959",
"$=	c #212324",
"%=	c #181F2A",
"&=	c #2B394D",
"*=	c #3F5573",
"==	c #4C678B",
"-=	c #4D678C",
";=	c #4B668B",
">=	c #4B658A",
",=	c #141B24",
"'=	c #050505",
")=	c #8D94A1",
"!=	c #757B86",
"~=	c #9B9B9B",
"{=	c #C2C2C2",
"]=	c #484848",
"^=	c #181A1D",
"/=	c #18212C",
"(=	c #2C3B51",
"_=	c #4A6488",
":=	c #4A6589",
"<=	c #090C10",
"[=	c #1B1B1B",
"}=	c #969698",
"|=	c #6E727B",
"1=	c #7F7F7F",
"2=	c #7B7B7B",
"3=	c #C6C6C6",
"4=	c #747474",
"5=	c #363737",
"6=	c #0E1115",
"7=	c #1B2431",
"8=	c #2E3E54",
"9=	c #3E5472",
"0=	c #010202",
"a=	c #404040",
"b=	c #86878B",
"c=	c #62666D",
"d=	c #959595",
"e=	c #797C83",
"f=	c #4F5256",
"g=	c #CACACA",
"h=	c #70757D",
"i=	c #9BA2B1",
"j=	c #808080",
"k=	c #767676",
"l=	c #B4B4B4",
"m=	c #777D89",
"n=	c #868C99",
"o=	c #737373",
"p=	c #545454",
"q=	c #AAAAAA",
"r=	c #858688",
"s=	c #9FA7B5",
"t=	c #686C74",
"u=	c #7B7D81",
"v=	c #5D6067",
"w=	c #6F6F6F",
"x=	c #9C9C9C",
"y=	c #72757B",
"z=	c #4E5054",
"A=	c #C7C7C7",
"B=	c #969DAB",
"C=	c #696969",
"D=	c #7C828E",
"E=	c #818894",
"F=	c #656565",
"G=	c #717680",
"H=	c #575758",
"I=	c #737780",
"J=	c #4F5258",
"                                                                                  . + @ # $ % & ",
"                                                            * = - ; > , ' ) ! ~ { ] ] ] ] ^ / ( ",
"                                      _ : < [ } | 1 2 3 4 5 ] ] ] ] ] ] ] ] 6 5 7 8 9 ] ] 0 / a ",
"                  b + c # d e f g h i ] ] ] ] ] ] ] 6 j k l m , n o p q r s t u v w , ] i x y   ",
"        z A B C ] ] ] ] ] ] ] { D E F G H I J _ K L M N O P Q R S T U V W X Y Z w `  .] ..+.@.  ",
"        } ] l f d [ + #.$.%.&.*.O =.-.;.>.,.'.).!.~.{.].^./.(._.:.<.[.}.|.1.2.3.w 4.5 ] 5.6.7.  ",
"        8.] 9.0.>.a.b.c.d.e.f.g.h.i.j.k.l.m.n.o.p.q.r.s.t.u.v.w.x.y.z.A.B.C.D.E.w F.] ] G./ H.  ",
"        I.] J.K.L.M.N.O.P.Q.R.S.T.U.V.W.W.X.Y.Z.Z.Z.`.`. +.+++@+#+$+C.D.%+&+*+=+w -+] ] ;+/ >+  ",
"        , ] ,+j.'+)+)+!+!+!+!+!+!+!+~+~+~+{+]+]+^+/+(+_+:+#+C.<+D.[+&+*+}+|+1+2+w 3+] ] 4+/ 5+  ",
"        6+5 7+8+9+0+a+0+b+b+b+c+0+d+d+d+e+e+f+g+h+i+B.C.j+%+k+&+*+}+l+m+n+o+p+w w q+] j r+s+    ",
"        t+u+v+w+x+y+z+A+B+C+D+E+F+G+H+I+H+J+K+L+C.D.%+k+M+*+}+l+N+n+o+O+P+Q+R+w w S+T+U+V+W+    ",
"        X+Y+Z+`+ @.@+@+@+@+@+@+@+@@@#@$@%@L+D.%+&+M+*+}+m+N+&@*@O+P+=@-@;@>@,@w '@h ~ 8.)@!@    ",
"        G ~@{@]@^@/@(@+@+@+@+@+@+@_@:@<@[@}@|@1@o+m+N+o+O+2@3@4@5@6@7@8@9@0@a@w F.k k b@c@d@    ",
"        ' e@f@g@h@i@j@k@l@m@n@o@p@q@r@|@s@<@<@t@u@v@w@x@y@z@A@B@C@9@0@D@E@F@G@w q 9 9 H@/ I@    ",
"        f J@K@L@M@h+N@O@P@Q@R@S@T@V &@n+U@<@<@<@<@V@W@W@X@Y@Y@Z@`@E@F@&@ #.#+#w + @#@###/ $#    ",
"  %#&#&#L *#=#-#;#>#,#'#)#!#~#{#m+]#Z ^#<@<@<@<@/#(#W@W@W@_#_#:#<#[#}#|#1#2#3#w 4#@#S+5#6#      ",
"  7#4.8#8#8#9#0#a#b#_@c#d#e#f#o+O+P+g#h#<@<@<@i#j#k#l#m#n#o#p#q#q#1#*@r#q#s#v t#~@@#u#v#w#      ",
"F.7#8#8#8#8#x#y#z#A#B#C#L 8 D#E#F#G#H#/#<@<@<@I#J#K#w L#M#N#1#*@r#q#O#P#Q#R#w S#T#@#U#V#W#      ",
"L X#8#8#8#8#Y#Z#`# $.$C#C#: 4 4 +$@$6+#$$$%$&$*$=$-$;$>$,$'$)$!$~$Q#{$]$^$/$w ($@#@#_$/ :$      ",
"<$[$8#8#8#8#}$`#|$1$2$C#C#*#B 4 3$4$k J E @ 5$k 6$7$8$9$0$a$b$c$d$e$f$g$h$i$w j$@#@#k$/ l$      ",
"%#m$8#8#8#x#n$`#o$p$q$C#C#C#r$4 k s$T## t$r$+$h u$v$w$x$y$z$A$B$C$g#D$E$F$G$w H$@#I$J$c@K$      ",
"L$M$8#8#4.N$O$`#P$Q$R$C#C#C#S$4 4 T$U$J@V$..W$u$X$X#w Y$8 L$Z$`$ %.%+%@%#%$%w %%@#S+&%*%        ",
"7#=%x#-%;%>%,%'%)%!%~%C#C#{%]%4 k s$]%^%/% .(%_%:%J@<%< I.# [%}%|%1%2%3%4%5%t#F @#@$6%7%        ",
"8%9%>%>%>%>%0%a%`#b%c%C#C#d%h 4 U$e%7 f%g%G < h%i%j%t+k%8.H H l%m%n%o%p%q%w r%I$@#s%t%W#        ",
"u%v%w%x%y%y%x%z%A%`#X#C#C#B%4 4 [ C%S+D%E%F%G%i%H%S$r$u#3$k%U+I%J%K%L%M%N%w O%@#@#P%/ Q%        ",
"R%M$8#8#8#8#8#S%T%U%v$C#V%! 4 2 W%8 X%Y%Z%`% &H%.&+&~@E @&#&8 $&%&&&*&=&-&w ;&@#@#>&/ ,&        ",
"    '&)&Y$!&r%'@~&=%C#{&]&^&/&(&_&:&<&[&}&|&1&2&3&S$~@5$X+f t$4&5&6&7&8&9&w f%@#@#0&a&          ",
"      ;&<%b&c&d&e&f&g&h&E$E$F$i&@%j&k&l&l&l&l&m&n&o&u#X%m F 3 p&q&r&s&t&u&w J@@#3$v&w&          ",
"      4$..x&y&g$D$E$z&+%A&@%#%B&C&D&E&F&l&l&l&l&G&H&@&u#3 ~@f I&J&K&L&M&N&` U$@#6+O&P&          ",
"      Q&R&S&T&U&#%A&@%#%B&C&D&V&p%W&X&Y&Z&`& *.*+*@$g ' f @*#*$*%*&***=*-*+@! @#;*>*,*          ",
"      '*@#)*Y%!*~*{*]*^*p%p%W&M%/*(*_*:*4%<*[*}*|*1*F 4#2*3*4*5*6*7*8*9*w 0*@#@#a*/ >+          ",
"      3+@#@#@#@#@#r$< b*c*d*e*f*4%4%<*g*h*i*j*t&k*l* .m*n*o*p*q*r*s*t*u*w v*@#@#w*/ x*          ",
"      B%@#! I$@#@#@#@#@##&1 W$y*z*A*B*C*t&D*E*F*G*H*I*J*J*K*L*t*M*N*O*P*w 3+@#E 0&y             ",
"      I @##& .T#@#@#@#@#@#@#@#@#R&^%#.Q*R*S*T*G*U*V*r*t*C*M*N*W*X*Y*Z*`*w e @#5$ =.=            ",
"      C%@#T#]%A 3 @#@#@#z +=@= .@#@#@#@#A c #=$=%=&=*===W*X*Y*-===;=>=,='=U$@#I.)=!=            ",
"      ~=@#T#]%5$U$I$@#@#T$T#[%8.H C%m @#@#@#@#E {=X%]=^=/=(=*=_=:=_=_=<=[=! @#}=>*|=            ",
"      #.V$A 3$5$5$Y+@#@#W%Q&. 1=@#+$2=; I.3=@#@#@#@#@#..e 4=5=6=7=8=9=0=a=@#@#b=/ c=            ",
"            . d={=]%@#@#b @#@#2=@#; t+) J@J @#k%e ) @#@#@#@#@#]%Y%_ 7#t#D%@#@#e=/ f=            ",
"                  p ; )*T#@#@#'*@#; t+g=c o ]%e%f r$@#@#@#@#@#@#@#@#I$g=@&@##&h=i=              ",
"                        b ; U$I$@#S$~@g=c g=j=k=l=d @#@#@#@#@#@#@#@#@#@#@#@#F m=n=              ",
"                              o=# 5$@#E R&@#p=r$l=d @#@#@#@#I$T#l  . .Y+3 E q=w&x               ",
"                                    o=n ) @#@#@#~@3=@#@#@##&Y+g )*A 5$5$5$5$r=s=t=              ",
"                                          p ~=F @#@#@#@#! ..S+]%U+5$5$5$5$5$u=/ v=              ",
"                                                w=x=~@I$#&.. .3$U$5$5$5$5$5$y=c@z=              ",
"                                                      w=@ A=R&8 A 5$5$5$5$@=H.B=                ",
"                                                            C=I 1 ) 5$5$5$q+D=E=                ",
"                                                                  F='*t+5$@ *%G=                ",
"                                                                        -+H=I=J=                "};
