/* XPM */
static char * volume_xpm[] = {
"13 10 2 1",
" 	g None",
".	g #363636",
"             ",
"             ",
"           . ",
"         ... ",
"       ..... ",
"     ....... ",
"   ......... ",
" ........... ",
"             ",
"             "};
