<?xml version="1.0" encoding="UTF-8" standalone="no"?>
<!-- Created with Inkscape (http://www.inkscape.org/) -->

<svg
   xmlns:dc="http://purl.org/dc/elements/1.1/"
   xmlns:cc="http://creativecommons.org/ns#"
   xmlns:rdf="http://www.w3.org/1999/02/22-rdf-syntax-ns#"
   xmlns:svg="http://www.w3.org/2000/svg"
   xmlns="http://www.w3.org/2000/svg"
   xmlns:xlink="http://www.w3.org/1999/xlink"
   xmlns:sodipodi="http://sodipodi.sourceforge.net/DTD/sodipodi-0.dtd"
   xmlns:inkscape="http://www.inkscape.org/namespaces/inkscape"
   width="24"
   height="24"
   id="svg2"
   sodipodi:version="0.32"
   inkscape:version="0.48.3.1 r9886"
   sodipodi:modified="true"
   version="1.0"
   sodipodi:docname="pitivi-ungroup-24.svg"
   inkscape:output_extension="org.inkscape.output.svg.inkscape"
   inkscape:export-filename="/home/ulisse/Desktop/pitivi-ungroup-24_01.png"
   inkscape:export-xdpi="90"
   inkscape:export-ydpi="90">
  <defs
     id="defs4">
    <linearGradient
       inkscape:collect="always"
       id="linearGradient3865">
      <stop
         style="stop-color:#3483d6;stop-opacity:1"
         offset="0"
         id="stop3867" />
      <stop
         style="stop-color:#e2ecf5;stop-opacity:1"
         offset="1"
         id="stop3869" />
    </linearGradient>
    <linearGradient
       id="linearGradient3948">
      <stop
         style="stop-color:#5ab107;stop-opacity:1"
         offset="0"
         id="stop3950" />
      <stop
         id="stop3952"
         offset="0.56630945"
         style="stop-color:#8ae234;stop-opacity:1" />
      <stop
         style="stop-color:#5ab107;stop-opacity:1"
         offset="1"
         id="stop3956" />
    </linearGradient>
    <linearGradient
       inkscape:collect="always"
       id="linearGradient3922">
      <stop
         style="stop-color:#4e9a06;stop-opacity:1"
         offset="0"
         id="stop3924" />
      <stop
         id="stop3930"
         offset="0.5012657"
         style="stop-color:#295103;stop-opacity:1" />
      <stop
         style="stop-color:#4e9a06;stop-opacity:1"
         offset="1"
         id="stop3926" />
    </linearGradient>
    <linearGradient
       id="linearGradient3058">
      <stop
         id="stop3060"
         offset="0"
         style="stop-color:#3465a4;stop-opacity:1" />
      <stop
         id="stop3836"
         offset="0.30157813"
         style="stop-color:#204a87;stop-opacity:1" />
      <stop
         style="stop-color:#5c8dc1;stop-opacity:1"
         offset="0.52680665"
         id="stop3064" />
      <stop
         id="stop3890"
         offset="0.68501753"
         style="stop-color:#729fcf;stop-opacity:1" />
      <stop
         id="stop3066"
         offset="1"
         style="stop-color:#1c4278;stop-opacity:1" />
    </linearGradient>
    <linearGradient
       inkscape:collect="always"
       xlink:href="#linearGradient3948"
       id="linearGradient3940"
       gradientUnits="userSpaceOnUse"
       gradientTransform="matrix(0.8636364,0,0,0.875,4.03125,3.75)"
       x1="-0.0096454499"
       y1="21.966951"
       x2="22.07896"
       y2="14.799329" />
    <linearGradient
       inkscape:collect="always"
       xlink:href="#linearGradient3922"
       id="linearGradient3942"
       gradientUnits="userSpaceOnUse"
       x1="10"
       y1="17"
       x2="10"
       y2="22"
       gradientTransform="translate(2,0)" />
    <linearGradient
       inkscape:collect="always"
       xlink:href="#linearGradient3865"
       id="linearGradient3871"
       x1="2"
       y1="8"
       x2="7"
       y2="8"
       gradientUnits="userSpaceOnUse"
       spreadMethod="repeat" />
    <linearGradient
       inkscape:collect="always"
       xlink:href="#linearGradient3058"
       id="linearGradient3895"
       x1="22.46875"
       y1="6.40625"
       x2="1.5"
       y2="12.6875"
       gradientUnits="userSpaceOnUse"
       gradientTransform="translate(1,0)" />
  </defs>
  <sodipodi:namedview
     id="base"
     pagecolor="#ffffff"
     bordercolor="#e8baba"
     borderopacity="1"
     inkscape:pageopacity="0.0"
     inkscape:pageshadow="2"
     inkscape:zoom="11.313708"
     inkscape:cx="9.3825475"
     inkscape:cy="-1.3326929"
     inkscape:document-units="px"
     inkscape:current-layer="layer1"
     width="48px"
     height="48px"
     borderlayer="false"
     inkscape:showpageshadow="false"
     showgrid="false"
     inkscape:window-width="1680"
     inkscape:window-height="995"
     inkscape:window-x="0"
     inkscape:window-y="27"
     inkscape:snap-grids="true"
     inkscape:window-maximized="1"
     showguides="true"
     inkscape:guide-bbox="true"
     inkscape:snap-bbox="true"
     showborder="true"
     fit-margin-top="1"
     fit-margin-left="1"
     fit-margin-right="1"
     fit-margin-bottom="1">
    <inkscape:grid
       type="xygrid"
       id="grid2380"
       visible="true"
       enabled="true"
       empspacing="5"
       snapvisiblegridlinesonly="true"
       originx="1px"
       originy="1px" />
  </sodipodi:namedview>
  <metadata
     id="metadata7">
    <rdf:RDF>
      <cc:Work
         rdf:about="">
        <dc:format>image/svg+xml</dc:format>
        <dc:type
           rdf:resource="http://purl.org/dc/dcmitype/StillImage" />
        <dc:title></dc:title>
        <cc:license
           rdf:resource="LGPLv2" />
        <dc:creator>
          <cc:Agent>
            <dc:title>Ulisse Perusin</dc:title>
          </cc:Agent>
        </dc:creator>
      </cc:Work>
    </rdf:RDF>
  </metadata>
  <g
     inkscape:label="Calque 1"
     inkscape:groupmode="layer"
     id="layer1"
     transform="translate(1,-1)">
    <g
       id="g3936"
       transform="translate(-3,0)">
      <path
         style="fill:url(#linearGradient3895);fill-opacity:1;stroke:none"
         d="m 3,2 0,3 19,0 0,-1 -1,0 0,-1 1,0 0,-1 z M 3,3 4,3 4,4 3,4 z M 5,3 6,3 6,4 5,4 z M 7,3 8,3 8,4 7,4 z m 2,0 1,0 0,1 -1,0 z m 2,0 1,0 0,1 -1,0 z m 2,0 1,0 0,1 -1,0 z m 2,0 1,0 0,1 -1,0 z m 2,0 1,0 0,1 -1,0 z m 2,0 1,0 0,1 -1,0 z m -16,7 0,3 19,0 0,-1 -1,0 0,-1 1,0 0,-1 z m 0,1 1,0 0,1 -1,0 z m 2,0 1,0 0,1 -1,0 z m 2,0 1,0 0,1 -1,0 z m 2,0 1,0 0,1 -1,0 z m 2,0 1,0 0,1 -1,0 z m 2,0 1,0 0,1 -1,0 z m 2,0 1,0 0,1 -1,0 z m 2,0 1,0 0,1 -1,0 z m 2,0 1,0 0,1 -1,0 z"
         id="rect3059"
         inkscape:connector-curvature="0"
         sodipodi:nodetypes="cccccccccccccccccccccccccccccccccccccccccccccccccccccccccccccccccccccccccccccccccccccccccccccccccccccccccccc" />
      <path
         sodipodi:nodetypes="ccccc"
         inkscape:connector-curvature="0"
         id="path3838"
         d="m 3.007,5.00391 19,0 0,5 -19,0 z"
         style="opacity:0.7;fill:url(#linearGradient3871);fill-opacity:1;stroke:none" />
    </g>
    <g
       id="g3932"
       transform="translate(-1,1)">
      <rect
         y="16"
         x="4.03125"
         height="7"
         width="19"
         id="rect3894"
         style="fill:url(#linearGradient3940);fill-opacity:1;stroke:none" />
      <path
         inkscape:connector-curvature="0"
         id="path3840"
         d="m 23.007,21.00391 -1,0 0,-1 -1,0 0,-1 1,0 0,-1 1,0 z m -3,0 -1,0 0,1 -1,0 0,-2 -1,0 0,1 -1,0 0,1 -1,0 0,-1 -1,0 0,-1 -1,0 0,1 -1,0 0,-3 1,0 0,1 1,0 0,-1 1,0 0,-1 1,0 0,1 1,0 0,1 1,0 0,-2 1,0 0,1 1,0 z m -9,-1 -1,0 0,-1 1,0 z m -2,0 -1,0 0,2 -1,0 0,-1 -1,0 0,-1 -1,0 0,-1 1,0 0,-1 1,0 0,-1 1,0 0,2 1,0 z"
         style="opacity:0.8;fill:url(#linearGradient3942);fill-opacity:1;stroke:none"
         sodipodi:nodetypes="cccccccccccccccccccccccccccccccccccccccccccccccccccccccccccccccc" />
    </g>
  </g>
</svg>
