<svg width="128px" height="128px" version="1.1" viewBox="0 0 128 128" xmlns="http://www.w3.org/2000/svg" xmlns:xlink="http://www.w3.org/1999/xlink">
    <linearGradient id="a" x1="12" x2="116.26" y1="72.293" y2="72.293" gradientUnits="userSpaceOnUse">
        <stop stop-color="#3d3846" offset="0"/>
        <stop stop-color="#616161" offset=".050256"/>
        <stop stop-color="#3d3846" offset=".10243"/>
        <stop stop-color="#3d3846" offset=".89565"/>
        <stop stop-color="#616161" offset=".94697"/>
        <stop stop-color="#3d3846" offset="1"/>
    </linearGradient>
    <linearGradient id="b" x1="75" x2="75" y1="40" y2="118" gradientTransform="matrix(.81451 0 0 .87728 3.8552 4.8757)" gradientUnits="userSpaceOnUse">
        <stop stop-color="#484848" offset="0"/>
        <stop stop-color="#3d3846" offset="1"/>
    </linearGradient>
    <linearGradient id="c" gradientUnits="userSpaceOnUse">
        <stop stop-color="#f0f0f0" offset=".40072"/>
        <stop stop-color="#888" offset="1"/>
    </linearGradient>
    <radialGradient id="d" cx="17.628" cy="17.934" r="1.6499" xlink:href="#c"/>
    <radialGradient id="e" cx="17.628" cy="30.966" r="1.6499" xlink:href="#c"/>
    <radialGradient id="f" cx="35.547" cy="30.966" r="1.6499" xlink:href="#c"/>
    <linearGradient id="g" x1="12" x2="116.21" y1="207.66" y2="207.66" gradientUnits="userSpaceOnUse">
        <stop stop-color="#616161" offset="0"/>
        <stop stop-color="#484848" offset="1"/>
    </linearGradient>
    <path d="m18.156 28.309h91.945c3.3984 0 6.1562 2.7578 6.1562 6.1562v75.656c0 3.3984-2.7578 6.1562-6.1562 6.1562h-91.945c-3.3984 0-6.1562-2.7578-6.1562-6.1562v-75.656c0-3.3984 2.7578-6.1562 6.1562-6.1562z" fill="url(#a)"/>
    <path d="m18.633 13.648h90.992c3.6641 0 6.6328 2.9688 6.6328 6.6328v81.48c0 3.6641-2.9688 6.6328-6.6328 6.6328h-90.992c-3.6641 0-6.6328-2.9688-6.6328-6.6328v-81.48c0-3.6641 2.9688-6.6328 6.6328-6.6328z" fill="url(#b)"/>
    <path d="m31.449 13.648h77.863s6.5156 0 6.5156 6.5156v4.25h-78.215z" fill="#191919"/>
    <path d="m37.492 24.238 78.336 0.17578 0.035156 11.098-71.984 0.03125z" fill="#191919"/>
    <g fill="#c0c0c0">
        <path d="m41.957 35.535 6.2148-10.766h9.7344l-6.2148 10.766z"/>
        <path d="m41.957 13.648 6.2148 10.766h9.7344l-6.2148-10.766z"/>
        <path d="m61.238 13.648 6.2148 10.766h9.7344l-6.2148-10.766z"/>
        <path d="m80.523 13.648 6.2148 10.766h9.7344l-6.2148-10.766z"/>
        <path d="m99.809 13.648 6.2148 10.766h9.7344l-6.2148-10.766z"/>
        <path d="m61.238 35.535 6.2148-10.766h9.7344l-6.2148 10.766z"/>
        <path d="m80.523 35.535 6.2148-10.766h9.7344l-6.2148 10.766z"/>
        <path d="m99.809 35.535 6.2148-10.766h9.7344l-6.2148 10.766z"/>
    </g>
    <path d="m31 57.59h66.293c3.6992 0 6.6953 2.9961 6.6953 6.6914v3.8086c0 3.6953-2.9961 6.6914-6.6953 6.6914h-66.293c-3.6953 0-6.6914-2.9961-6.6914-6.6914v-3.8086c0-3.6953 2.9961-6.6914 6.6914-6.6914z" fill="#0a0a0a"/>
    <path d="m31 57.59c-3.707 0-6.6914 2.9844-6.6914 6.6914v3.543c0-3.7109 2.9844-6.6953 6.6914-6.6953h66.297c3.707 0 6.6914 2.9844 6.6914 6.6953v-3.543c0-3.707-2.9844-6.6914-6.6914-6.6914z" fill="#2e2e2e"/>
    <g fill="none" stroke="#c0c0c0" stroke-linecap="round" stroke-linejoin="round" stroke-width=".81579">
        <path d="m24.75 84.281h78.848"/>
        <path d="m24.734 98.941h78.84"/>
        <path d="m80.418 84.281v14.621"/>
        <path d="m47.84 84.281v14.621"/>
    </g>
    <path d="m20.109 12.02s-8.1094-0.78516-8.1094 7.8516v15.664l32.09 0.035156-13.512-23.551z" fill="#333331"/>
    <path d="m19.277 19.266c0 0.91016-0.73828 1.6484-1.6484 1.6484-0.91406 0-1.6523-0.73828-1.6523-1.6484 0-0.91406 0.73828-1.6523 1.6523-1.6523 0.91016 0 1.6484 0.73828 1.6484 1.6523z" fill="#191919"/>
    <path d="m19.277 17.934c0 0.91016-0.73828 1.6484-1.6484 1.6484-0.91406 0-1.6523-0.73828-1.6523-1.6484s0.73828-1.6484 1.6523-1.6484c0.91016 0 1.6484 0.73828 1.6484 1.6484z" fill="url(#d)"/>
    <path d="m19.277 32.297c0 0.91016-0.73828 1.6484-1.6484 1.6484-0.91406 0-1.6523-0.73828-1.6523-1.6484s0.73828-1.6523 1.6523-1.6523c0.91016 0 1.6484 0.74219 1.6484 1.6523z" fill="#191919"/>
    <path d="m37.195 32.297c0 0.91016-0.73828 1.6484-1.6484 1.6484s-1.6484-0.73828-1.6484-1.6484 0.73828-1.6523 1.6484-1.6523 1.6484 0.74219 1.6484 1.6523z" fill="#191919"/>
    <path d="m18.211 17.348-1.168 1.1719" fill="none" stroke="#000" stroke-linecap="round" stroke-linejoin="round" stroke-width=".55412"/>
    <path d="m18.211 18.52-1.168-1.1719" fill="none" stroke="#000" stroke-linecap="round" stroke-linejoin="round" stroke-width=".55412"/>
    <path d="m19.277 30.965c0 0.91016-0.73828 1.6523-1.6484 1.6523-0.91406 0-1.6523-0.74219-1.6523-1.6523s0.73828-1.6484 1.6523-1.6484c0.91016 0 1.6484 0.73828 1.6484 1.6484z" fill="url(#e)"/>
    <path d="m18.211 30.383-1.168 1.168" fill="none" stroke="#000" stroke-linecap="round" stroke-linejoin="round" stroke-width=".55412"/>
    <path d="m18.211 31.551-1.168-1.168" fill="none" stroke="#000" stroke-linecap="round" stroke-linejoin="round" stroke-width=".55412"/>
    <path d="m37.195 30.965c0 0.91016-0.73828 1.6523-1.6484 1.6523s-1.6484-0.74219-1.6484-1.6523 0.73828-1.6484 1.6484-1.6484 1.6484 0.73828 1.6484 1.6484z" fill="url(#f)"/>
    <path d="m36.133 30.383-1.168 1.168" fill="none" stroke="#000" stroke-linecap="round" stroke-linejoin="round" stroke-width=".55412"/>
    <path d="m36.133 31.551-1.168-1.168" fill="none" stroke="#000" stroke-linecap="round" stroke-linejoin="round" stroke-width=".55412"/>
    <g fill="#ff3f13">
        <path d="m31.727 63.176-0.55469 0.55859 0.55469 0.55859h2.9414l0.55859-0.55859-0.55859-0.55859z"/>
        <path d="m31.656 64.398-0.55859-0.55469-0.55859 0.55469v2.9414l0.55859 0.55859 0.55859-0.55859z"/>
        <path d="m35.855 64.398-0.55859-0.55469-0.55859 0.55469v2.9414l0.55859 0.55859 0.55859-0.55859z"/>
        <path d="m31.727 72.828-0.55469-0.55469 0.55469-0.55859h2.9414l0.55859 0.55859-0.55859 0.55469z"/>
        <path d="m31.656 71.605-0.55859 0.55859-0.55859-0.55859v-2.9414l0.55859-0.55859 0.55859 0.55859z"/>
        <path d="m35.855 71.605-0.55859 0.55859-0.55859-0.55859v-2.9414l0.55859-0.55859 0.55859 0.55859z"/>
        <path d="m39.871 63.176-0.55469 0.55859 0.55469 0.55859h2.9414l0.55859-0.55859-0.55859-0.55859z"/>
        <path d="m39.801 64.398-0.55859-0.55469-0.55859 0.55469v2.9414l0.55859 0.55859 0.55859-0.55859z"/>
        <path d="m44 64.398-0.55859-0.55469-0.55859 0.55469v2.9414l0.55859 0.55859 0.55859-0.55859z"/>
        <path d="m39.871 72.828-0.55469-0.55469 0.55469-0.55859h2.9414l0.55859 0.55859-0.55859 0.55469z"/>
        <path d="m39.801 71.605-0.55859 0.55859-0.55859-0.55859v-2.9414l0.55859-0.55859 0.55859 0.55859z"/>
        <path d="m44 71.605-0.55859 0.55859-0.55859-0.55859v-2.9414l0.55859-0.55859 0.55859 0.55859z"/>
        <path d="m49.648 63.176-0.55859 0.55859 0.55859 0.55859h2.9414l0.55859-0.55859-0.55859-0.55859z"/>
        <path d="m49.648 67.441-0.55859 0.55859 0.55859 0.55859h2.9414l0.55859-0.55859-0.55859-0.55859z"/>
        <path d="m49.574 64.398-0.55469-0.55469-0.5625 0.55469v2.9414l0.5625 0.55859 0.55469-0.55859z"/>
        <path d="m49.648 72.828-0.55859-0.55469 0.55859-0.55859h2.9414l0.55859 0.55859-0.55859 0.55469z"/>
        <path d="m53.773 71.605-0.55469 0.55859-0.5625-0.55859v-2.9414l0.5625-0.55859 0.55469 0.55859z"/>
        <path d="m57.793 63.176-0.55859 0.55859 0.55859 0.55859h2.9414l0.55859-0.55859-0.55859-0.55859z"/>
        <path d="m57.793 67.441-0.55859 0.55859 0.55859 0.55859h2.9414l0.55859-0.55859-0.55859-0.55859z"/>
        <path d="m57.719 64.398-0.55469-0.55469-0.55859 0.55469v2.9414l0.55859 0.55859 0.55469-0.55859z"/>
        <path d="m61.918 64.398-0.55469-0.55469-0.5625 0.55469v2.9414l0.5625 0.55859 0.55469-0.55859z"/>
        <path d="m57.793 72.828-0.55859-0.55469 0.55859-0.55859h2.9414l0.55859 0.55859-0.55859 0.55469z"/>
        <path d="m57.719 71.605-0.55469 0.55859-0.55859-0.55859v-2.9414l0.55859-0.55859 0.55469 0.55859z"/>
        <path d="m61.918 71.605-0.55469 0.55859-0.5625-0.55859v-2.9414l0.5625-0.55859 0.55469 0.55859z"/>
        <path d="m45.605 71.707h1.1094v1.1211h-1.1094z"/>
        <path d="m67.566 63.176-0.55859 0.55859 0.55859 0.55859h2.9414l0.55859-0.55859-0.55859-0.55859z"/>
        <path d="m67.566 67.441-0.55859 0.55859 0.55859 0.55859h2.9414l0.55859-0.55859-0.55859-0.55859z"/>
        <path d="m67.492 64.398-0.55469-0.55469-0.55859 0.55469v2.9414l0.55859 0.55859 0.55469-0.55859z"/>
        <path d="m67.566 72.828-0.55859-0.55469 0.55859-0.55859h2.9414l0.55859 0.55859-0.55859 0.55469z"/>
        <path d="m71.691 71.605-0.55469 0.55859-0.55859-0.55859v-2.9414l0.55859-0.55859 0.55469 0.55859z"/>
        <path d="m75.711 63.176-0.55859 0.55859 0.55859 0.55859h2.9414l0.55859-0.55859-0.55859-0.55859z"/>
        <path d="m75.711 67.441-0.55859 0.55859 0.55859 0.55859h2.9414l0.55859-0.55859-0.55859-0.55859z"/>
        <path d="m75.637 64.398-0.55469-0.55469-0.55859 0.55469v2.9414l0.55859 0.55859 0.55469-0.55859z"/>
        <path d="m79.836 64.398-0.55469-0.55469-0.55859 0.55469v2.9414l0.55859 0.55859 0.55469-0.55859z"/>
        <path d="m75.711 72.828-0.55859-0.55469 0.55859-0.55859h2.9414l0.55859 0.55859-0.55859 0.55469z"/>
        <path d="m79.836 71.605-0.55469 0.55859-0.55859-0.55859v-2.9414l0.55859-0.55859 0.55469 0.55859z"/>
        <path d="m63.527 71.707h1.1055v1.1211h-1.1055z"/>
        <path d="m85.484 63.176-0.55469 0.55859 0.55469 0.55859h2.9414l0.55859-0.55859-0.55859-0.55859z"/>
        <path d="m85.414 64.398-0.55859-0.55469-0.55859 0.55469v2.9414l0.55859 0.55859 0.55859-0.55859z"/>
        <path d="m89.609 64.398-0.55469-0.55469-0.55859 0.55469v2.9414l0.55859 0.55859 0.55469-0.55859z"/>
        <path d="m85.484 72.828-0.55469-0.55469 0.55469-0.55859h2.9414l0.55859 0.55859-0.55859 0.55469z"/>
        <path d="m85.414 71.605-0.55859 0.55859-0.55859-0.55859v-2.9414l0.55859-0.55859 0.55859 0.55859z"/>
        <path d="m89.609 71.605-0.55469 0.55859-0.55859-0.55859v-2.9414l0.55859-0.55859 0.55469 0.55859z"/>
        <path d="m93.629 63.176-0.55469 0.55859 0.55469 0.55859h2.9414l0.55859-0.55859-0.55859-0.55859z"/>
        <path d="m93.629 67.441-0.55469 0.55859 0.55469 0.55859h2.9414l0.55859-0.55859-0.55859-0.55859z"/>
        <path d="m93.559 64.398-0.55859-0.55469-0.55859 0.55469v2.9414l0.55859 0.55859 0.55859-0.55859z"/>
        <path d="m97.758 64.398-0.55859-0.55469-0.55859 0.55469v2.9414l0.55859 0.55859 0.55859-0.55859z"/>
        <path d="m93.629 72.828-0.55469-0.55469 0.55469-0.55859h2.9414l0.55859 0.55859-0.55859 0.55469z"/>
        <path d="m97.758 71.605-0.55859 0.55859-0.55859-0.55859v-2.9414l0.55859-0.55859 0.55859 0.55859z"/>
        <path d="m81.445 71.707h1.1055v1.1211h-1.1055z"/>
    </g>
    <g fill="#fff">
        <path d="m24.25 45.34h0.4375v-3.3594h0.67188c0.54688 0 0.90625 0.35938 0.90625 0.89062 0 0.5-0.29688 0.78125-0.85938 0.78125h-0.875v0.39062h0.79688c0.84375 0 1.3906-0.5 1.3906-1.25 0-0.71875-0.51562-1.1875-1.3125-1.1875h-1.1562zm3.1328 0h0.42188v-2l-0.078126-0.59375h-0.34375zm0.32813-1.6875c0.15625-0.32812 0.46875-0.53125 0.8125-0.53125 0.10937 0 0.20312 0.015625 0.29687 0.046875l0.10938-0.39062c-0.125-0.046875-0.23438-0.0625-0.34375-0.0625-0.35938 0-0.6875 0.1875-0.875 0.5zm2.7461 1.7344c0.76562 0 1.2812-0.54688 1.2812-1.375 0-0.8125-0.48438-1.3281-1.2188-1.3281-0.76562 0-1.2812 0.54688-1.2812 1.3906 0 0.79688 0.46875 1.3125 1.2188 1.3125zm0.046875-0.375c-0.5 0-0.82812-0.40625-0.82812-1 0-0.57812 0.29688-0.95312 0.78125-0.95312 0.5 0 0.84375 0.42188 0.84375 1.0156 0 0.5625-0.3125 0.9375-0.79688 0.9375zm2.9453 0.375c0.4375 0 0.78125-0.20312 0.98438-0.5625l-0.15625-0.20312c-0.15625 0.25-0.39062 0.39062-0.70312 0.39062-0.51562 0-0.84375-0.40625-0.84375-1 0-0.5625 0.29688-0.95312 0.79688-0.95312 0.32812 0 0.59375 0.15625 0.73438 0.42188l0.20312-0.25c-0.1875-0.34375-0.51562-0.54688-0.95312-0.54688-0.73438 0-1.2188 0.54688-1.2188 1.375 0 0.79688 0.46875 1.3281 1.1562 1.3281zm0.89062-0.046875h0.29688v-3.9844h-0.4375v3.6875zm1.4297 0.046875c0.20312 0 0.34375-0.14062 0.34375-0.34375 0-0.1875-0.14062-0.34375-0.34375-0.34375s-0.34375 0.15625-0.34375 0.34375c0 0.20312 0.14062 0.34375 0.34375 0.34375z"/>
        <path d="m32.121 52.203h0.39062v-1.5625h1.8125v1.5625h0.40625v-3.375h-0.40625v1.4531h-1.8125v-1.4531h-0.39062zm3.5 0h0.39062v-3.0156h0.67188c0.48438 0 0.76562 0.23438 0.76562 0.65625s-0.25 0.65625-0.71875 0.65625h-0.85938v0.34375h0.8125c0.70312 0 1.1719-0.45312 1.1719-1.0781 0-0.57812-0.4375-0.9375-1.125-0.9375h-1.1094zm1.9531 0h0.48438l-0.9375-1.5938h-0.46875zm1.8828 0.046875c0.75 0 1.2344-0.375 1.2344-0.96875 0-1.2031-1.8906-0.71875-1.8906-1.5938 0-0.35938 0.29688-0.54688 0.8125-0.54688 0.28125 0 0.59375 0.046875 0.84375 0.15625l0.10938-0.3125c-0.28125-0.125-0.60938-0.20312-0.92188-0.20312-0.76562 0-1.25 0.375-1.25 0.96875 0 1.1562 1.8906 0.71875 1.8906 1.5781 0 0.34375-0.29688 0.5625-0.8125 0.5625-0.29688 0-0.6875-0.078125-1.0156-0.21875l-0.10938 0.3125c0.375 0.17188 0.75 0.26562 1.1094 0.26562z"/>
        <path d="m50.656 52.203h0.375v-2.8125h-0.078125l1.1719 2.2812h0.3125l1.1719-2.2812h-0.0625v2.8125h0.39062v-3.375h-0.40625l-1.3594 2.6562h0.25l-1.3594-2.6562h-0.40625zm4.168 0h0.39062v-3.375h-0.39062zm1.2969 0h0.375v-2.9375h-0.078125l2 2.9375h0.45312v-3.375h-0.39062v2.9531h0.078125l-1.9844-2.9531h-0.45312z"/>
        <path d="m70.02 52.25c0.75 0 1.2344-0.375 1.2344-0.96875 0-1.2031-1.8906-0.71875-1.8906-1.5938 0-0.35938 0.29688-0.54688 0.8125-0.54688 0.28125 0 0.59375 0.046875 0.84375 0.15625l0.10938-0.3125c-0.28125-0.125-0.60938-0.20312-0.92188-0.20312-0.76562 0-1.25 0.375-1.25 0.96875 0 1.1562 1.8906 0.71875 1.8906 1.5781 0 0.34375-0.29688 0.5625-0.8125 0.5625-0.29688 0-0.6875-0.078125-1.0156-0.21875l-0.10938 0.3125c0.375 0.17188 0.75 0.26562 1.1094 0.26562zm1.8555-0.046875h2.1094v-0.34375h-1.7188v-1.2188h1.5938v-0.35938h-1.5938v-1.0938h1.7188v-0.35938h-2.1094zm4.3047 0.046875c0.32812 0 0.67187-0.078125 0.98437-0.21875l-0.09375-0.29688c-0.23437 0.10938-0.53125 0.15625-0.79687 0.15625-0.8125 0-1.3438-0.5625-1.3438-1.4219 0-0.82812 0.5-1.3281 1.3125-1.3281 0.26562 0 0.57812 0.0625 0.82812 0.15625l0.125-0.29688c-0.25-0.14062-0.60937-0.21875-0.9375-0.21875-1.0469 0-1.7344 0.71875-1.7344 1.7812 0 1.0156 0.65625 1.6875 1.6562 1.6875z"/>
        <path d="m87.73 52.203h0.39062v-1.5625h1.5625v-0.35938h-1.5625v-1.0938h1.7031v-0.35938h-2.0938zm2.7305 0h0.39062v-3.0156h0.67188c0.48437 0 0.76562 0.23438 0.76562 0.65625s-0.25 0.65625-0.71875 0.65625h-0.85937v0.34375h0.8125c0.70312 0 1.1719-0.45312 1.1719-1.0781 0-0.57812-0.4375-0.9375-1.125-0.9375h-1.1094zm1.9531 0h0.48438l-0.9375-1.5938h-0.46875zm1.8867 0.046875c0.75 0 1.2344-0.375 1.2344-0.96875 0-1.2031-1.8906-0.71875-1.8906-1.5938 0-0.35938 0.29688-0.54688 0.8125-0.54688 0.28125 0 0.59375 0.046875 0.84375 0.15625l0.10938-0.3125c-0.28125-0.125-0.60938-0.20312-0.92188-0.20312-0.76562 0-1.25 0.375-1.25 0.96875 0 1.1562 1.8906 0.71875 1.8906 1.5781 0 0.34375-0.29688 0.5625-0.8125 0.5625-0.29688 0-0.6875-0.078125-1.0156-0.21875l-0.10938 0.3125c0.375 0.17188 0.75 0.26562 1.1094 0.26562z"/>
    </g>
    <g fill="none">
        <g stroke="#fff" stroke-width=".65971">
            <path d="m42.977 50.52h5.4023"/>
            <path d="m24.309 50.52h5.4023"/>
            <path d="m61.512 50.52h5.4023"/>
            <path d="m80.051 50.52h5.3984"/>
            <path d="m98.586 50.52h5.4023"/>
        </g>
        <path transform="translate(0 -172)" d="m12 207.66h104.21" stroke="url(#g)" stroke-width=".3"/>
    </g>
</svg>
