<svg xmlns="http://www.w3.org/2000/svg" width="128" height="128" version="1.0"><defs><linearGradient id="a"><stop offset="0" stop-color="#d5d3cf"/><stop offset="1" stop-color="#f6f5f4"/></linearGradient><linearGradient id="b"><stop offset="0" stop-color="#d5d3cf"/><stop offset="1" stop-color="#949390"/></linearGradient><linearGradient id="c"><stop offset="0" stop-color="#9a9996"/><stop offset="1" stop-color="#77767b"/></linearGradient><clipPath clipPathUnits="userSpaceOnUse" id="e"><rect ry="0" rx="0" y="-40.445" x="64" height="32.222" width="448" style="marker:none" fill="#e4e6e8" stroke-width="24"/></clipPath><clipPath clipPathUnits="userSpaceOnUse" id="d"><path style="marker:none" d="M64-40.445h448v32.223H96c-15.592 0-32-17.02-32-32.223z" fill="#e4e6e8" stroke-width="24"/></clipPath></defs><g transform="translate(0 -172)"><rect width="112" height="82.03" x="8" y="205.97" rx="8" ry="8" fill="#422863"/><rect ry="8" rx="8" y="201.97" x="8" height="82.03" width="112" fill="#613583"/><g transform="translate(.019 .028)"><g transform="matrix(.25 0 0 -.25 -8.019 197.917)" clip-path="url(#d)"><rect style="marker:none" width="448" height="56.232" x="64" y="-48.454" rx="0" ry="0" fill="#f6f5f4"/><rect ry="0" rx="0" transform="scale(1 -1) rotate(-30)" y="-26.738" x="62.535" height="135.764" width="45.414" style="marker:none" fill="#241f31"/><rect style="marker:none" width="45.414" height="135.764" x="149.138" y="23.262" transform="scale(1 -1) rotate(-30)" rx="0" ry="0" fill="#241f31"/><rect ry="0" rx="0" transform="scale(1 -1) rotate(-30)" y="73.262" x="235.74" height="135.764" width="45.414" style="marker:none" fill="#241f31"/><rect style="marker:none" width="45.414" height="135.764" x="322.343" y="123.262" transform="scale(1 -1) rotate(-30)" rx="0" ry="0" fill="#241f31"/><rect ry="0" rx="0" transform="scale(1 -1) rotate(-30)" y="173.262" x="408.945" height="135.764" width="45.414" style="marker:none" fill="#241f31"/></g><g clip-path="url(#e)" transform="matrix(.25 0 0 .25 -8.019 218.083)"><rect ry="0" rx="0" y="-48.454" x="64" height="56.232" width="448" style="marker:none" fill="#fff"/><rect style="marker:none" width="45.414" height="135.764" x="62.535" y="-26.738" transform="scale(1 -1) rotate(-30)" rx="0" ry="0"/><rect ry="0" rx="0" transform="scale(1 -1) rotate(-30)" y="23.262" x="149.138" height="135.764" width="45.414" style="marker:none"/><rect style="marker:none" width="45.414" height="135.764" x="235.74" y="73.262" transform="scale(1 -1) rotate(-30)" rx="0" ry="0"/><rect ry="0" rx="0" transform="scale(1 -1) rotate(-30)" y="123.262" x="322.343" height="135.764" width="45.414" style="marker:none"/><rect style="marker:none" width="45.414" height="135.764" x="408.945" y="173.262" transform="scale(1 -1) rotate(-30)" rx="0" ry="0"/></g><path d="M7.981 205.306c0-2.668 2.745-5.334 5.334-5.334 0 0 10.666 10.59 10.666 10.667v5.333h-16z" fill="#c0bfbc"/><circle r="1.25" cy="213.249" cx="10.997" style="marker:none" fill="#241f31"/><circle style="marker:none" cx="10.997" cy="205.266" r="1.25" fill="#241f31"/><rect style="marker:none" width="112" height="2" x="7.981" y="215.972" rx="0" ry="0" fill="#77767b"/><path d="M119.981 215.972v2h-10l1.272-2zM99.346 215.972l-1.017 2H84.981l1.272-2zM74.224 215.972l-1.016 2H59.86l1.271-2zM49.224 215.972l-1.016 2H34.86l1.271-2zM24.363 215.972l-1.017 2H9.998l1.272-2z" fill="#3d3846"/><circle style="marker:none" cx="10.997" cy="212.943" r="1.25" fill="#f6f5f4"/><circle r="1.25" cy="204.961" cx="10.997" style="marker:none" fill="#f6f5f4"/><circle style="marker:none" cx="20.888" cy="213.222" r="1.25" fill="#241f31"/><circle r="1.25" cy="212.917" cx="20.888" style="marker:none" fill="#f6f5f4"/></g><g fill="#f6f5f4"><path style="marker:none" d="M26 244h76c1.062 0 2 .936 2 2H24c0-1.108.983-2 2-2z"/><path style="marker:none" d="M48 232v14h-2v-14zM82 232v14h-2v-14zM24 262h80c0 1.054-.913 2-2 2H26c-.985 0-2-1.03-2-2z"/></g></g></svg>