<?xml version="1.0" encoding="utf-8"?>
<!-- Generator: Adobe Illustrator 23.0.1, SVG Export Plug-In . SVG Version: 6.00 Build 0)  -->
<svg version="1.1" id="vector" xmlns="http://www.w3.org/2000/svg" xmlns:xlink="http://www.w3.org/1999/xlink" x="0px" y="0px"
	 viewBox="0 0 512 512" style="enable-background:new 0 0 512 512;" xml:space="preserve">
<style type="text/css">
	.st0{fill:#585C63;}
	.st1{fill:#E4E7ED;}
</style>
<path class="st0" d="M380.9,51.9c-68.4-68.8-179.7-69.3-248.7-1s-69.7,179.5-1.5,248.7c18.4,18.1,29,42.7,29.3,68.6v16h80v-192h-32
	v-32h96v32h-32v192h80v-16c0-25.4,10.2-49.7,28.3-67.6C449.1,232,449.3,120.8,380.9,51.9z M176.1,192.2h-32v-32h32V192.2z
	 M368.1,192.2h-32v-32h32V192.2z"/>
<path id="path_1" class="st0" d="M176.1,416.2h160c8.8,0,16,7.2,16,16c0,8.8-7.2,16-16,16h-160c-8.8,0-16-7.2-16-16
	C160.1,423.3,167.2,416.2,176.1,416.2z M208.1,480.2h96c8.8,0,16,7.2,16,16c0,8.8-7.2,16-16,16h-96c-8.8,0-16-7.2-16-16
	C192.1,487.3,199.2,480.2,208.1,480.2z"/>
<path class="st1" d="M238,172"/>
</svg>
