<?xml version="1.0" encoding="UTF-8" standalone="no"?>
<svg
   xmlns:osb="http://www.openswatchbook.org/uri/2009/osb"
   xmlns:dc="http://purl.org/dc/elements/1.1/"
   xmlns:cc="http://creativecommons.org/ns#"
   xmlns:rdf="http://www.w3.org/1999/02/22-rdf-syntax-ns#"
   xmlns:svg="http://www.w3.org/2000/svg"
   xmlns="http://www.w3.org/2000/svg"
   width="16"
   viewBox="0 0 16 16"
   version="1.1"
   id="svg7384"
   height="16">
  <metadata
     id="metadata90">
    <rdf:RDF>
      <cc:Work
         rdf:about="">
        <dc:format>image/svg+xml</dc:format>
        <dc:type
           rdf:resource="http://purl.org/dc/dcmitype/StillImage" />
        <dc:title>Gnome Symbolic Icon Theme</dc:title>
      </cc:Work>
    </rdf:RDF>
  </metadata>
  <title
     id="title9167">Gnome Symbolic Icon Theme</title>
  <defs
     id="defs7386">
    <linearGradient
       osb:paint="solid"
       id="linearGradient7212">
      <stop
         style="stop-color:#000000;stop-opacity:1;"
         offset="0"
         id="stop7214" />
    </linearGradient>
  </defs>
  <g
     transform="translate(-19.9999,139.98872)"
     style="display:inline"
     id="layer1" />
  <g
     transform="translate(-261.0001,506.98872)"
     style="display:inline"
     id="layer9" />
  <g
     transform="translate(-261.0001,506.98872)"
     style="display:inline"
     id="g7628" />
  <g
     transform="translate(-19.9999,-60.01128)"
     id="layer13" />
  <g
     transform="translate(-19.9999,139.98872)"
     style="display:inline"
     id="layer11" />
  <g
     transform="translate(-19.9999,-60.01128)"
     id="layer14" />
  <g
     transform="translate(-19.9999,139.98872)"
     style="display:inline"
     id="g6387">
    <path
       d="m 28,-139 a 7,7 0 0 0 -7,7 7,7 0 0 0 7,7 7,7 0 0 0 7,-7 7,7 0 0 0 -7,-7 z m -0.1875,2.01172 c 1.64243,-0.092 3.0955,1.17008 3.1875,2.8125 -10e-5,1.40136 -0.37771,1.92177 -1.59375,2.84375 -0.19093,0.14364 -0.3256,0.2506 -0.375,0.3125 -0.0494,0.0621 -0.03125,0.0333 -0.03125,0.0312 0.007,0.52831 -0.47163,1 -1,1 -0.52837,0 -1.007,-0.47169 -1,-1 0,-0.50239 0.22424,-0.94342 0.46875,-1.25 0.24451,-0.30663 0.4913,-0.51638 0.71875,-0.6875 0.20405,-0.16056 0.46083,-0.38454 0.6875,-0.65625 0.0935,-0.1121 0.129,-0.30766 0.125,-0.4375 v -0.0312 c -0.0316,-0.56324 -0.49926,-0.9691 -1.0625,-0.9375 -0.56324,0.0316 -0.9691,0.43676 -0.9375,1 h -2 c -0.092,-1.64243 1.17007,-2.9079 2.8125,-3 z m 0.1875,8 c 0.55228,0 1,0.44772 1,1 0,0.55228 -0.44772,1 -1,1 -0.55228,0 -1,-0.44772 -1,-1 0,-0.55228 0.44772,-1 1,-1 z"
       id="path15586"
       style="opacity:1;vector-effect:none;fill:#2e3436;fill-opacity:1;fill-rule:nonzero;stroke:none;stroke-width:3;stroke-linecap:butt;stroke-linejoin:miter;stroke-miterlimit:4;stroke-dasharray:none;stroke-dashoffset:0;stroke-opacity:1;marker:none;marker-start:none;marker-mid:none;marker-end:none;paint-order:normal" />
  </g>
  <g
     transform="translate(-19.9999,-60.01128)"
     id="layer18" />
  <g
     transform="translate(-19.9999,-60.01128)"
     id="layer17" />
  <g
     transform="translate(-19.9999,-60.01128)"
     id="layer16" />
  <g
     transform="translate(-19.9999,139.98872)"
     style="display:inline"
     id="layer10" />
  <g
     transform="translate(-19.9999,-60.01128)"
     id="layer15" />
  <g
     transform="translate(-19.9999,139.98872)"
     id="layer12" />
</svg>
