<svg xmlns="http://www.w3.org/2000/svg" width="16" height="16.008">
    <g fill="#2e3436">
        <path style="line-height:normal;font-variant-ligatures:normal;font-variant-position:normal;font-variant-caps:normal;font-variant-numeric:normal;font-variant-alternates:normal;font-feature-settings:normal;text-indent:0;text-align:start;text-decoration-line:none;text-decoration-style:solid;text-decoration-color:#000;text-transform:none;text-orientation:mixed;white-space:normal;shape-padding:0;isolation:auto;mix-blend-mode:normal;solid-color:#000;solid-opacity:1;marker:none" d="M7.517 3.008c-3.578 0-6.5 2.922-6.5 6.5s2.922 6.5 6.5 6.5 6.5-2.922 6.5-6.5-2.922-6.5-6.5-6.5zm0 2c2.498 0 4.5 2.003 4.5 4.5s-2.002 4.5-4.5 4.5a4.485 4.485 0 01-4.5-4.5c0-2.497 2.003-4.5 4.5-4.5z" color="#000" font-weight="400" font-family="sans-serif" overflow="visible"/>
        <path style="line-height:normal;font-variant-ligatures:normal;font-variant-position:normal;font-variant-caps:normal;font-variant-numeric:normal;font-variant-alternates:normal;font-feature-settings:normal;text-indent:0;text-align:start;text-decoration-line:none;text-decoration-style:solid;text-decoration-color:#000;text-transform:none;text-orientation:mixed;white-space:normal;shape-padding:0;isolation:auto;mix-blend-mode:normal;solid-color:#000;solid-opacity:1" d="M4.898 0a1 1 0 100 2h5.239a1 1 0 100-2z" color="#000" font-weight="400" font-family="sans-serif" overflow="visible"/>
        <path style="line-height:normal;font-variant-ligatures:normal;font-variant-position:normal;font-variant-caps:normal;font-variant-numeric:normal;font-variant-alternates:normal;font-feature-settings:normal;text-indent:0;text-align:start;text-decoration-line:none;text-decoration-style:solid;text-decoration-color:#000;text-transform:none;text-orientation:mixed;white-space:normal;shape-padding:0;isolation:auto;mix-blend-mode:normal;solid-color:#000;solid-opacity:1;marker:none" d="M12.844 2.777l-2.53 2.507 1.407 1.422 2.53-2.51z" color="#000" font-weight="400" font-family="sans-serif" overflow="visible"/>
        <path d="M7.017 9.995h1v-4h-1z"/>
    </g>
</svg>
